<svg xmlns="http://www.w3.org/2000/svg" viewBox="0 0 754.17 316"><defs><style>.cls-1{fill:#fff;}</style></defs><g id="Camada_2" data-name="Camada 2"><g id="Camada_1-2" data-name="Camada 1"><path class="cls-1" d="M393.48,140.62a18.79,18.79,0,0,1-10.43-3,21.16,21.16,0,0,1-7.38-8.22A25.24,25.24,0,0,1,373,117.56a24.64,24.64,0,0,1,2.79-11.88,21.61,21.61,0,0,1,7.51-8.14,19.46,19.46,0,0,1,10.56-3,19.67,19.67,0,0,1,6.44,1,18.1,18.1,0,0,1,5.3,2.84,17.23,17.23,0,0,1,3.9,4.24,15.43,15.43,0,0,1,2.17,5.22l-1.87-.93L410,95.51h6.36v44.27h-6.45V128.92l1.7-1.1a13.65,13.65,0,0,1-2.29,4.88,18.9,18.9,0,0,1-4.12,4.11,19.72,19.72,0,0,1-11.74,3.81Zm1.44-6.1a14.65,14.65,0,0,0,7.89-2.16,15.19,15.19,0,0,0,5.47-6,18.86,18.86,0,0,0,2-8.78,18.61,18.61,0,0,0-2-8.74,15.53,15.53,0,0,0-5.47-6,15.32,15.32,0,0,0-15.82,0,15.59,15.59,0,0,0-5.43,6,18.73,18.73,0,0,0-2,8.74,19,19,0,0,0,1.95,8.69,15.05,15.05,0,0,0,5.43,6.06A14.56,14.56,0,0,0,394.92,134.52Z"/><path class="cls-1" d="M445.72,140.62a21,21,0,0,1-11.2-3,21.54,21.54,0,0,1-7.76-8.22,26.06,26.06,0,0,1,0-23.66,20.91,20.91,0,0,1,19-11.15,23.65,23.65,0,0,1,10.35,2.24,19,19,0,0,1,7.46,6.24l-3.73,4.58A17.82,17.82,0,0,0,456,103.9a19.11,19.11,0,0,0-4.83-2.5,15.83,15.83,0,0,0-5.13-.89,14.78,14.78,0,0,0-8.06,2.25,16.29,16.29,0,0,0-5.64,6.06,18.06,18.06,0,0,0-2.08,8.74,18.31,18.31,0,0,0,2.08,8.78A15.85,15.85,0,0,0,438,132.4a14.84,14.84,0,0,0,8,2.2,15.91,15.91,0,0,0,5-.8,18.32,18.32,0,0,0,4.66-2.33,19.71,19.71,0,0,0,4.07-3.82l3.73,4.58a20.46,20.46,0,0,1-7.71,6.11A23.23,23.23,0,0,1,445.72,140.62Z"/><path class="cls-1" d="M487.27,140.62a18.81,18.81,0,0,1-10.43-3,21.16,21.16,0,0,1-7.38-8.22,25.24,25.24,0,0,1-2.71-11.83,24.53,24.53,0,0,1,2.8-11.88,21.51,21.51,0,0,1,7.5-8.14,19.46,19.46,0,0,1,10.56-3,19.73,19.73,0,0,1,6.45,1,18.23,18.23,0,0,1,5.3,2.84,17.62,17.62,0,0,1,3.9,4.24,15.61,15.61,0,0,1,2.16,5.22l-1.87-.93.26-11.45h6.36v44.27h-6.45V128.92l1.7-1.1a13.65,13.65,0,0,1-2.29,4.88,19.07,19.07,0,0,1-4.11,4.11,19.78,19.78,0,0,1-11.75,3.81Zm1.44-6.1a14.65,14.65,0,0,0,7.89-2.16,15.12,15.12,0,0,0,5.47-6,18.86,18.86,0,0,0,2-8.78,18.61,18.61,0,0,0-2-8.74,15.46,15.46,0,0,0-5.47-6,15.32,15.32,0,0,0-15.82,0,15.57,15.57,0,0,0-5.42,6,18.61,18.61,0,0,0-2,8.74,19,19,0,0,0,1.95,8.69,15.05,15.05,0,0,0,5.43,6.06A14.58,14.58,0,0,0,488.71,134.52Z"/><path class="cls-1" d="M538.83,140.62a20.09,20.09,0,0,1-10.81-3,21,21,0,0,1-7.55-8.19,26.82,26.82,0,0,1,0-23.74,21.41,21.41,0,0,1,7.55-8.19,19.83,19.83,0,0,1,10.69-3,20.31,20.31,0,0,1,6.4,1,19.52,19.52,0,0,1,5.55,2.84,18.05,18.05,0,0,1,4.08,4.16,11.17,11.17,0,0,1,2,4.88l-2-.68V77h6.36v62.76h-6.28l-.17-11,1.61-.59a10.58,10.58,0,0,1-1.91,4.62,17.67,17.67,0,0,1-3.94,4,19.09,19.09,0,0,1-5.38,2.8A19.33,19.33,0,0,1,538.83,140.62Zm.94-5.85a14.41,14.41,0,0,0,7.88-2.2,15.31,15.31,0,0,0,5.47-6.11,19.28,19.28,0,0,0,2-8.9,19,19,0,0,0-2-8.86,15.65,15.65,0,0,0-5.47-6.11,15.17,15.17,0,0,0-15.9,0,15.79,15.79,0,0,0-5.43,6.11,19.12,19.12,0,0,0-2,8.86,19.45,19.45,0,0,0,1.95,8.82,15.31,15.31,0,0,0,5.43,6.15A14.57,14.57,0,0,0,539.77,134.77Z"/><path class="cls-1" d="M591.33,140.62a23.6,23.6,0,0,1-11.75-2.88,20.49,20.49,0,0,1-8-8.06,23.85,23.85,0,0,1-2.89-11.87,26.06,26.06,0,0,1,1.61-9.37,22.46,22.46,0,0,1,4.54-7.33,20.26,20.26,0,0,1,7-4.88,22.18,22.18,0,0,1,8.82-1.74,20.31,20.31,0,0,1,8.18,1.61,19.26,19.26,0,0,1,6.36,4.45,18.83,18.83,0,0,1,4,6.75,23.43,23.43,0,0,1,1.19,8.56l-.09,3H573.43l-.93-5.34h33L604,114.93v-2a13.33,13.33,0,0,0-1.78-5.89,12.64,12.64,0,0,0-4.54-4.62,13.16,13.16,0,0,0-7-1.78,16.77,16.77,0,0,0-8.23,1.91,12.72,12.72,0,0,0-5.34,5.63,20.49,20.49,0,0,0-1.87,9.25,19.23,19.23,0,0,0,2,9.11,14.38,14.38,0,0,0,5.81,6,18.24,18.24,0,0,0,9.11,2.12,19.12,19.12,0,0,0,6.24-1.06,22.1,22.1,0,0,0,6.82-4.19l3.31,4.58a20.3,20.3,0,0,1-4.66,3.43,27.49,27.49,0,0,1-5.94,2.37A24.45,24.45,0,0,1,591.33,140.62Z"/><path class="cls-1" d="M617.7,139.78V95.51h6.36l.17,10.09L623,106a13.25,13.25,0,0,1,2.25-4.62A16.36,16.36,0,0,1,629,97.8a17.13,17.13,0,0,1,4.83-2.33,18.66,18.66,0,0,1,5.52-.81,16.2,16.2,0,0,1,6.23,1.14,10.61,10.61,0,0,1,4.66,3.91,20.54,20.54,0,0,1,2.93,7.25l-1.53-.77.6-1.44a13.72,13.72,0,0,1,2.5-3.77,20.51,20.51,0,0,1,3.81-3.27,18.33,18.33,0,0,1,4.75-2.24,17.66,17.66,0,0,1,5.3-.81,14.81,14.81,0,0,1,7.89,2,12.32,12.32,0,0,1,4.88,6.07A27.75,27.75,0,0,1,683,113.06v26.72h-6.53V113.4a20.06,20.06,0,0,0-1.1-7.21A8.57,8.57,0,0,0,672.1,102a9.81,9.81,0,0,0-5.47-1.4,14,14,0,0,0-5.3,1,12.22,12.22,0,0,0-4.15,2.72,12.94,12.94,0,0,0-2.72,3.94,11.6,11.6,0,0,0-1,4.75v26.8H647V113.32a18.76,18.76,0,0,0-1.14-7,8.94,8.94,0,0,0-3.35-4.24,9.72,9.72,0,0,0-5.43-1.44,13.44,13.44,0,0,0-5.17,1,12.51,12.51,0,0,0-6.83,6.57,11.67,11.67,0,0,0-1,4.75v26.89Z"/><path class="cls-1" d="M698.18,85.93a4.86,4.86,0,0,1-3.6-1.23,4.49,4.49,0,0,1-1.23-3.35,4.59,4.59,0,0,1,1.27-3.4,4.84,4.84,0,0,1,3.56-1.27,4.91,4.91,0,0,1,3.56,1.23A4.56,4.56,0,0,1,703,81.35a4.46,4.46,0,0,1-1.27,3.3A4.8,4.8,0,0,1,698.18,85.93ZM695,139.78V95.51h6.36v44.27Z"/><path class="cls-1" d="M730.91,140.62a18.81,18.81,0,0,1-10.43-3,21.16,21.16,0,0,1-7.38-8.22,25.24,25.24,0,0,1-2.71-11.83,24.53,24.53,0,0,1,2.8-11.88,21.59,21.59,0,0,1,7.5-8.14,19.46,19.46,0,0,1,10.56-3,19.73,19.73,0,0,1,6.45,1,18.23,18.23,0,0,1,5.3,2.84,17.62,17.62,0,0,1,3.9,4.24,15.21,15.21,0,0,1,2.16,5.22L747.2,107l.25-11.45h6.36v44.27h-6.44V128.92l1.69-1.1a13.48,13.48,0,0,1-2.29,4.88,19.07,19.07,0,0,1-4.11,4.11,19.78,19.78,0,0,1-11.75,3.81Zm1.45-6.1a14.64,14.64,0,0,0,7.88-2.16,15.12,15.12,0,0,0,5.47-6,18.86,18.86,0,0,0,2-8.78,18.61,18.61,0,0,0-2-8.74,15.46,15.46,0,0,0-5.47-6,15.3,15.3,0,0,0-15.81,0,15.59,15.59,0,0,0-5.43,6,18.61,18.61,0,0,0-2,8.74,19,19,0,0,0,2,8.69,15,15,0,0,0,5.42,6.06A14.59,14.59,0,0,0,732.36,134.52Z"/><path class="cls-1" d="M373.06,195.36v-15h39.5v15Zm8.77,43.71V175.66a22.29,22.29,0,0,1,2.56-10.7,19.48,19.48,0,0,1,7.17-7.57,20.37,20.37,0,0,1,10.76-2.79,24.26,24.26,0,0,1,8,1.26,21.28,21.28,0,0,1,6.48,3.53l-5.23,13.31a19.07,19.07,0,0,0-2.85-1.25,8,8,0,0,0-2.5-.45,7.55,7.55,0,0,0-3.42.68,4.18,4.18,0,0,0-2,2.11,8.51,8.51,0,0,0-.63,3.47v61.81H381.83Z"/><path class="cls-1" d="M440.57,240.09a23.69,23.69,0,0,1-13.61-4,28.29,28.29,0,0,1-9.5-11.15,38.91,38.91,0,0,1,0-32.39,28,28,0,0,1,9.67-11.1,25,25,0,0,1,14-4,24,24,0,0,1,7.92,1.25,21.06,21.06,0,0,1,6.31,3.47,23,23,0,0,1,4.67,5.13,21.38,21.38,0,0,1,2.85,6.2l-3.76-.45V178.62h18.1v60.45H458.78V224.5l4.1-.11a19.67,19.67,0,0,1-3,6,22.46,22.46,0,0,1-5,5,24.87,24.87,0,0,1-6.6,3.41A23.52,23.52,0,0,1,440.57,240.09Zm5-15.36a13.39,13.39,0,0,0,7.28-1.94,12.88,12.88,0,0,0,4.78-5.52,21.88,21.88,0,0,0,0-17,13.29,13.29,0,0,0-4.78-5.58,13.08,13.08,0,0,0-7.28-2,12.59,12.59,0,0,0-7.12,2,13.37,13.37,0,0,0-4.72,5.58,21.88,21.88,0,0,0,0,17,12.44,12.44,0,0,0,11.84,7.46Z"/><path class="cls-1" d="M490.88,239.07V178.62h17.3l.57,10.93-2.39.12a19.84,19.84,0,0,1,8.26-9,23.54,23.54,0,0,1,5.57-2.34,22.15,22.15,0,0,1,5.87-.8,22.91,22.91,0,0,1,8.08,1.37,16.14,16.14,0,0,1,6.37,4.38,21.69,21.69,0,0,1,4.33,8.14l-2.85-.23.91-1.82a19.9,19.9,0,0,1,3.82-4.95,23.7,23.7,0,0,1,5.18-3.75,25.88,25.88,0,0,1,5.92-2.34,25.27,25.27,0,0,1,17.87,2,17.56,17.56,0,0,1,7.23,8.37,33.7,33.7,0,0,1,2.44,13.55v36.88H567v-35.4a15.49,15.49,0,0,0-1-6,7.44,7.44,0,0,0-3-3.58,9.47,9.47,0,0,0-5-1.2,11.73,11.73,0,0,0-4.38.8,10.35,10.35,0,0,0-3.41,2.16A9.7,9.7,0,0,0,548,199a10,10,0,0,0-.8,4.1v36H528.9V203.55a14.76,14.76,0,0,0-1-5.8,7.71,7.71,0,0,0-3.08-3.65,9,9,0,0,0-4.78-1.25,11.73,11.73,0,0,0-4.38.8,10.5,10.5,0,0,0-3.42,2.16,9.71,9.71,0,0,0-3,7.17v36.09Z"/><path class="cls-1" d="M597.54,172l-5.35-8.31,20.38-16.16,8.31,11.95Zm-.11,67V178.62h18.33v60.45Z"/><path class="cls-1" d="M629,239.07V154.83h18.21v84.24Z"/><path class="cls-1" d="M671.3,166.67c-3.41,0-6.09-.81-8-2.45a8.62,8.62,0,0,1-2.9-7,8.52,8.52,0,0,1,3-6.71,11.54,11.54,0,0,1,8-2.62c3.42,0,6.07.81,8,2.45a8.57,8.57,0,0,1,2.85,6.88,8.77,8.77,0,0,1-2.9,6.83A11.38,11.38,0,0,1,671.3,166.67Zm-9.1,72.4V178.62h18.21v60.45Z"/><path class="cls-1" d="M717.52,240.09a23.64,23.64,0,0,1-13.6-4,28.23,28.23,0,0,1-9.51-11.15,38.91,38.91,0,0,1,0-32.39,27.94,27.94,0,0,1,9.68-11.1,24.94,24.94,0,0,1,14-4,24,24,0,0,1,7.91,1.25,21.11,21.11,0,0,1,6.32,3.47,23.46,23.46,0,0,1,4.67,5.13,21.35,21.35,0,0,1,2.84,6.2l-3.75-.45V178.62h18.09v60.45H735.73V224.5l4.1-.11a19.45,19.45,0,0,1-3,6,22.26,22.26,0,0,1-5,5,24.56,24.56,0,0,1-6.6,3.41A23.52,23.52,0,0,1,717.52,240.09Zm5-15.36a13.39,13.39,0,0,0,7.28-1.94,12.81,12.81,0,0,0,4.78-5.52,21.88,21.88,0,0,0,0-17,13.22,13.22,0,0,0-4.78-5.58,13.08,13.08,0,0,0-7.28-2,12.62,12.62,0,0,0-7.12,2,13.45,13.45,0,0,0-4.72,5.58,21.88,21.88,0,0,0,0,17,12.44,12.44,0,0,0,11.84,7.46Z"/><path class="cls-1" d="M315.81,165.71c.05-1,.09-2,.12-3.05,0-.3,0-.6,0-.89,0-1.26.05-2.51.05-3.77v-.09c0-1.72,0-3.43-.1-5.14,0-.36,0-.72,0-1.08q-.09-2.48-.27-4.95a1.93,1.93,0,0,0,0-.24v0C309.65,64.71,241.24,0,158,0A157.84,157.84,0,0,0,31.9,62.91a10.56,10.56,0,0,0-.8,1A156.54,156.54,0,0,0,.23,149.51c0,.28,0,.56,0,.85,0,.95-.08,1.91-.11,2.88l0,1c0,1.18,0,2.37,0,3.55v.34c0,1.18,0,2.36.05,3.54l0,1.06c0,.95.06,1.9.11,2.85,0,.29,0,.58,0,.87A158,158,0,0,0,100.06,305l.17.06q2.77,1.1,5.6,2.08l2,.69c.41.13.81.28,1.22.42h0q6.5,2.12,13.12,3.64l.41.1c1.09.25,2.18.48,3.27.71l.52.11q3.63.74,7.31,1.31l.93.14,2.67.37,1.19.15c.87.11,1.74.21,2.62.3l1,.12c1.17.11,2.36.22,3.54.31l.94.07,2.7.17,1.33.06,2.44.1,1.29,0c1.09,0,2.19,0,3.29.05h.66c1.1,0,2.2,0,3.29-.05l1.29,0,2.44-.1,1.33-.06,2.71-.17.93-.07c1.18-.09,2.37-.2,3.55-.31l1-.12c.88-.09,1.75-.19,2.63-.3l1.18-.15,2.67-.37.93-.14q3.67-.57,7.31-1.31l.51-.11c1.1-.22,2.19-.46,3.28-.71l.4-.1q6.63-1.53,13.13-3.64h0c.44-.14.86-.3,1.29-.44l1.81-.63c1.95-.68,3.87-1.39,5.78-2.14l.07,0a158,158,0,0,0,99.87-138.59C315.79,166.19,315.8,166,315.81,165.71Zm-21.88-3.53c0,.46,0,.91-.05,1.36,0,1-.09,1.94-.15,2.9l-.09,1.45c-.08,1.12-.18,2.24-.29,3.35-.06.66-.13,1.32-.21,2-.09.84-.19,1.68-.29,2.51s-.21,1.48-.31,2.21l-.24,1.52a136.31,136.31,0,0,1-68.19,97.36c0-.17,0-.34.08-.51.09-.56.18-1.12.26-1.69.06-.37.11-.75.16-1.13.07-.57.13-1.15.19-1.73,0-.37.08-.73.11-1.09.05-.64.09-1.27.12-1.91,0-.31.05-.62.06-.93,0-.95.06-1.9.06-2.86s0-2.16-.08-3.23c0-.41-.06-.82-.08-1.23-.05-.64-.09-1.28-.15-1.92s-.11-1.05-.18-1.58-.11-1-.18-1.47-.19-1.23-.29-1.84c-.06-.36-.13-.72-.2-1.08-.13-.72-.27-1.42-.43-2.13,0-.19-.09-.38-.13-.57a67.35,67.35,0,0,0-52-50.74,79.76,79.76,0,0,1,77.37-60,79,79,0,0,1,45,13.92c0,.14,0,.28,0,.42.05,1.48.08,3,.08,4.4v.2C294,159.47,294,160.83,293.93,162.18ZM190.35,290.1c-.77.19-1.55.38-2.33.55l-1.83.4c-1,.21-1.92.4-2.88.58l-1.22.23c-1.35.24-2.69.46-4.05.66l-1.32.19c-1.1.15-2.2.29-3.31.41-.35,0-.7.09-1.06.12-1.43.15-2.87.28-4.31.39l-.85.05c-1.21.08-2.43.15-3.64.2l-1.12,0c-1.47.05-3,.08-4.43.08s-2.95,0-4.43-.08l-1.12,0c-1.21-.05-2.42-.12-3.62-.2l-.88-.05q-2.14-.17-4.29-.39c-.37,0-.73-.08-1.1-.12-1.09-.12-2.17-.26-3.26-.41l-1.36-.19c-1.34-.2-2.68-.42-4-.65l-1.27-.25c-1-.18-1.88-.36-2.82-.56l-1.87-.41-2.29-.54c-1.17-.29-2.33-.59-3.49-.91l-1.64-.45c-.37-.1-.73-.22-1.1-.33-.08-.12-.14-.24-.22-.36q-.54-.92-1-1.86c-.13-.24-.26-.47-.38-.71-.37-.72-.71-1.44-1-2.18l-.3-.7c-.33-.76-.64-1.52-.92-2.3-.06-.18-.12-.37-.19-.56-.27-.79-.53-1.58-.76-2.38,0-.1,0-.19-.08-.28-.24-.85-.44-1.71-.63-2.57,0-.17-.07-.33-.1-.49-.18-.86-.33-1.73-.45-2.6,0-.18,0-.35-.08-.53-.11-.88-.21-1.77-.27-2.67,0-.14,0-.28,0-.42-.06-.94-.1-1.89-.1-2.85A45.2,45.2,0,0,1,158,219.81h.5A45.29,45.29,0,0,1,203.15,265c0,1,0,1.91-.1,2.86,0,.14,0,.27,0,.41-.06.9-.16,1.8-.27,2.69,0,.16,0,.33-.07.49-.13.89-.28,1.77-.46,2.65l-.09.4c-.19.92-.41,1.83-.66,2.72l0,.05c-.25.89-.53,1.77-.84,2.65,0,.12-.08.24-.13.36-.3.84-.63,1.67-1,2.49-.07.16-.14.31-.2.46-.36.82-.75,1.62-1.16,2.41-.06.13-.14.26-.2.39-.44.82-.89,1.63-1.38,2.43-.37.11-.74.23-1.12.33-.54.16-1.08.3-1.63.45C192.67,289.52,191.52,289.82,190.35,290.1ZM24.13,182q-.22-1.25-.42-2.52c-.09-.54-.17-1.09-.25-1.64-.11-.7-.21-1.4-.3-2.11-.12-.91-.23-1.83-.33-2.75,0-.52-.11-1-.16-1.55-.12-1.2-.22-2.4-.31-3.61l-.09-1.33q-.09-1.53-.15-3.06c0-.41,0-.82-.05-1.23,0-1.41-.07-2.82-.07-4.23s0-3,.08-4.47c0-.44,0-.88.05-1.32.05-1.12.11-2.23.18-3.34,0-.43.05-.86.09-1.28.09-1.28.21-2.55.34-3.81.09-.8.18-1.59.28-2.38.05-.49.12-1,.18-1.46A135.23,135.23,0,0,1,44.77,82.75a135.24,135.24,0,0,1,102,116l-1.34.26-1.25.24c-.69.15-1.37.31-2,.48-.35.08-.69.15-1,.24-1,.27-2,.55-3,.86h0c-1,.32-2,.65-3,1-.31.11-.61.24-.92.36-.67.25-1.33.51-2,.78l-1.08.48c-.59.26-1.18.52-1.77.8l-1.11.54-1.67.86-1.1.6-1.62.93-1.06.64c-.54.34-1.08.68-1.61,1l-1,.66c-.55.38-1.1.77-1.64,1.17-.28.21-.58.41-.86.63-.63.47-1.25,1-1.86,1.46l-.55.44c-.8.66-1.59,1.34-2.35,2-.1.09-.18.18-.28.26q-1,.92-2,1.86l-.68.7c-.49.5-1,1-1.44,1.52-.26.28-.51.57-.77.86-.42.48-.85,1-1.26,1.46-.26.31-.52.62-.77.94-.39.48-.78,1-1.16,1.47l-.74,1-1.09,1.53-.69,1c-.35.53-.7,1.08-1,1.62-.21.33-.42.66-.62,1-.35.58-.69,1.18-1,1.79-.17.3-.34.59-.5.89-.42.77-.81,1.54-1.2,2.33l-.22.43q-.67,1.41-1.29,2.85c-.1.24-.19.5-.29.74-.3.72-.59,1.43-.86,2.16-.13.35-.25.72-.37,1.08-.22.62-.44,1.25-.64,1.88-.13.4-.25.81-.37,1.21-.18.6-.35,1.21-.52,1.82-.11.43-.22.85-.32,1.28-.15.6-.29,1.21-.42,1.82-.1.43-.19.87-.27,1.3-.12.62-.23,1.24-.34,1.87l-.21,1.3c-.09.65-.17,1.3-.25,2,0,.42-.1.83-.14,1.25-.07.72-.12,1.45-.16,2.18,0,.35-.06.71-.08,1.07-.05,1.09-.08,2.18-.08,3.28s0,1.91.06,2.86l.06.91c0,.65.07,1.29.12,1.93,0,.36.07.71.11,1.06.06.6.12,1.19.2,1.78,0,.37.09.72.14,1.08.09.59.18,1.18.28,1.76,0,.16.05.32.07.47a136.37,136.37,0,0,1-67.75-94.72ZM158,22c63.93,0,117.69,44.34,132.16,103.88a102.07,102.07,0,0,0-128.25,40,158.21,158.21,0,0,0-30.68-54.45A159,159,0,0,0,59.66,64.15,135.62,135.62,0,0,1,158,22Z"/></g></g></svg>