<svg xmlns="http://www.w3.org/2000/svg" viewBox="0 0 381.53 516.87"><defs><style>.cls-1{fill:#fff;}</style></defs><g id="Camada_2" data-name="Camada 2"><g id="Camada_1-2" data-name="Camada 1"><path class="cls-1" d="M348.5,165.71c.05-1,.09-2,.12-3.05l0-.89c0-1.26,0-2.51,0-3.77v-.09c0-1.72,0-3.43-.09-5.14,0-.36,0-.72,0-1.08q-.1-2.48-.27-4.95a1.93,1.93,0,0,1,0-.24,0,0,0,0,1,0,0C342.34,64.71,273.94,0,190.69,0A157.84,157.84,0,0,0,64.59,62.91c-.27.3-.54.61-.79,1a156.56,156.56,0,0,0-30.88,85.65c0,.28,0,.56,0,.85,0,.95-.08,1.91-.11,2.88l0,1c0,1.18,0,2.37,0,3.55,0,.06,0,.11,0,.17s0,.11,0,.17c0,1.18,0,2.36,0,3.54l0,1.06c0,.95.07,1.9.11,2.85,0,.29,0,.58,0,.87A158,158,0,0,0,132.76,305l.16.06c1.86.73,3.72,1.42,5.61,2.08l2,.69,1.21.42h0q6.48,2.12,13.12,3.64l.4.1c1.09.25,2.18.48,3.28.71l.51.11q3.65.74,7.32,1.31l.93.14,2.66.37,1.19.15c.87.11,1.75.21,2.62.3l1,.12c1.18.11,2.36.22,3.54.31l.94.07,2.7.17,1.34.06,2.43.1,1.29,0c1.1,0,2.19,0,3.29.05H191c1.1,0,2.2,0,3.3-.05l1.29,0,2.43-.1,1.33-.06,2.72-.17.92-.07c1.19-.09,2.37-.2,3.55-.31l1-.12c.88-.09,1.76-.19,2.63-.3l1.19-.15,2.66-.37.93-.14q3.67-.57,7.32-1.31l.51-.11c1.09-.22,2.19-.46,3.28-.71l.4-.1q6.63-1.53,13.12-3.64h0l1.28-.44,1.82-.63c1.94-.68,3.87-1.39,5.77-2.14l.08,0a158,158,0,0,0,99.87-138.59Zm-21.88-3.53c0,.46,0,.91-.05,1.36,0,1-.09,1.94-.15,2.9,0,.49-.05,1-.09,1.45-.08,1.12-.17,2.24-.28,3.35l-.21,2c-.09.84-.19,1.68-.3,2.51s-.2,1.48-.31,2.21c-.07.51-.15,1-.23,1.52a136.35,136.35,0,0,1-68.2,97.36c0-.17.05-.34.08-.51.1-.56.19-1.12.27-1.69l.15-1.13c.07-.57.14-1.15.2-1.73,0-.37.07-.73.1-1.09,0-.64.09-1.27.13-1.91,0-.31,0-.62,0-.93,0-.95.07-1.9.07-2.86s0-2.16-.09-3.23c0-.41-.05-.82-.08-1.23,0-.64-.08-1.28-.15-1.92s-.11-1.05-.17-1.58-.12-1-.19-1.47-.19-1.23-.29-1.84c-.06-.36-.13-.72-.19-1.08-.14-.72-.28-1.42-.43-2.13-.05-.19-.09-.38-.14-.57a67.35,67.35,0,0,0-51.94-50.74A79.88,79.88,0,0,1,326.6,153.09c0,.14,0,.28,0,.42.05,1.48.08,3,.08,4.4v.2C326.69,159.47,326.66,160.83,326.62,162.18ZM223.05,290.1c-.78.19-1.56.38-2.33.55l-1.84.4c-1,.21-1.92.4-2.88.58l-1.22.23c-1.34.24-2.69.46-4,.66l-1.32.19c-1.11.15-2.21.29-3.31.41-.36,0-.71.09-1.07.12-1.43.15-2.86.28-4.3.39l-.86.05c-1.21.08-2.42.15-3.64.2l-1.11,0c-1.48.05-3,.08-4.44.08s-2.95,0-4.43-.08l-1.12,0c-1.21-.05-2.41-.12-3.62-.2l-.88-.05q-2.14-.17-4.29-.39l-1.09-.12c-1.09-.12-2.18-.26-3.27-.41l-1.36-.19c-1.34-.2-2.68-.42-4-.65l-1.28-.25c-.94-.18-1.88-.36-2.82-.56l-1.86-.41c-.77-.17-1.53-.36-2.29-.54-1.18-.29-2.34-.59-3.5-.91-.54-.15-1.09-.29-1.63-.45l-1.11-.33-.21-.36c-.37-.61-.72-1.23-1.06-1.86l-.37-.71c-.37-.72-.72-1.44-1-2.18-.11-.23-.21-.46-.31-.7-.32-.76-.63-1.52-.91-2.3-.07-.18-.13-.37-.2-.56-.27-.79-.53-1.58-.76-2.38a2.29,2.29,0,0,0-.08-.28c-.23-.85-.44-1.71-.63-2.57,0-.17-.07-.33-.1-.49-.18-.86-.32-1.73-.45-2.6,0-.18,0-.35-.07-.53-.12-.88-.21-1.77-.28-2.67,0-.14,0-.28,0-.42-.06-.94-.1-1.89-.1-2.85a45.21,45.21,0,0,1,45.12-45.15h.5A45.29,45.29,0,0,1,235.85,265c0,1,0,1.91-.1,2.86l0,.41c-.06.9-.15,1.8-.27,2.69,0,.16,0,.33-.07.49-.13.89-.28,1.77-.45,2.65l-.09.4c-.2.92-.42,1.83-.67,2.72,0,0,0,0,0,.05-.25.89-.54,1.77-.85,2.65l-.12.36c-.3.84-.64,1.67-1,2.49-.07.16-.13.31-.2.46-.36.82-.74,1.62-1.15,2.41l-.21.39c-.43.82-.89,1.63-1.37,2.43l-1.12.33c-.54.16-1.09.3-1.63.45C225.37,289.52,224.21,289.82,223.05,290.1ZM56.82,182c-.15-.83-.28-1.67-.42-2.52-.09-.54-.17-1.09-.25-1.64l-.3-2.11c-.12-.91-.22-1.83-.32-2.75-.06-.52-.12-1-.17-1.55-.12-1.2-.22-2.4-.31-3.61,0-.44,0-.89-.08-1.33-.06-1-.12-2-.16-3.06,0-.41,0-.82,0-1.23-.05-1.41-.08-2.82-.08-4.23s0-3,.09-4.47c0-.44,0-.88,0-1.32,0-1.12.1-2.23.18-3.34,0-.43.05-.86.08-1.28.09-1.28.22-2.55.35-3.81.08-.8.17-1.59.27-2.38.06-.49.12-1,.19-1.46A135.1,135.1,0,0,1,77.47,82.75a135.24,135.24,0,0,1,102,116l-1.34.26c-.42.08-.84.15-1.25.24-.69.15-1.38.31-2.06.48-.34.08-.69.15-1,.24-1,.27-2,.55-3,.86h0c-1,.32-2,.65-3,1-.31.11-.61.24-.92.36-.66.25-1.33.51-2,.78l-1.08.48c-.59.26-1.18.52-1.76.8-.38.17-.75.36-1.12.54l-1.67.86-1.1.6-1.62.93-1.06.64-1.6,1-1,.66c-.56.38-1.1.77-1.64,1.17-.29.21-.58.41-.87.63-.63.47-1.24,1-1.85,1.46l-.56.44c-.8.66-1.58,1.34-2.35,2l-.27.26c-.66.61-1.32,1.23-1.95,1.86l-.68.7c-.49.5-1,1-1.45,1.52-.26.28-.51.57-.76.86-.43.48-.85,1-1.27,1.46l-.77.94c-.39.48-.78,1-1.16,1.47l-.74,1q-.56.76-1.08,1.53l-.7,1c-.35.53-.69,1.08-1,1.62-.21.33-.42.66-.62,1-.36.58-.7,1.18-1,1.79-.17.3-.35.59-.51.89-.41.77-.81,1.54-1.19,2.33l-.22.43q-.67,1.41-1.29,2.85c-.11.24-.2.5-.3.74-.29.72-.58,1.43-.85,2.16-.13.35-.25.72-.38,1.08-.22.62-.44,1.25-.64,1.88-.13.4-.24.81-.37,1.21-.18.6-.35,1.21-.51,1.82-.12.43-.22.85-.33,1.28-.15.6-.29,1.21-.42,1.82l-.27,1.3c-.12.62-.23,1.24-.33,1.87-.08.43-.15.87-.21,1.3-.1.65-.18,1.3-.25,2-.05.42-.1.83-.14,1.25-.07.72-.12,1.45-.17,2.18,0,.35-.06.71-.07,1.07-.06,1.09-.09,2.18-.09,3.28s0,1.91.07,2.86c0,.3,0,.6,0,.91,0,.65.07,1.29.13,1.93,0,.36.07.71.1,1.06.06.6.12,1.19.2,1.78l.15,1.08c.08.59.17,1.18.27,1.76,0,.16,0,.32.08.47a136.38,136.38,0,0,1-67.76-94.72ZM190.69,22c63.93,0,117.69,44.34,132.16,103.88a102.06,102.06,0,0,0-128.24,40,158.07,158.07,0,0,0-30.69-54.45A158.91,158.91,0,0,0,92.35,64.15,135.63,135.63,0,0,1,190.69,22Z"/><path class="cls-1" d="M21.2,417.4a18.76,18.76,0,0,1-10.43-3,21.16,21.16,0,0,1-7.38-8.22A25.25,25.25,0,0,1,.67,394.34a24.64,24.64,0,0,1,2.8-11.88A21.61,21.61,0,0,1,11,374.32a19.46,19.46,0,0,1,10.56-3,19.72,19.72,0,0,1,6.44,1,18.1,18.1,0,0,1,5.3,2.84,17.23,17.23,0,0,1,3.9,4.24,15.43,15.43,0,0,1,2.17,5.22l-1.87-.93.25-11.45h6.36v44.27H37.65V405.7l1.7-1.1a13.65,13.65,0,0,1-2.29,4.88,19.35,19.35,0,0,1-4.12,4.11A19.72,19.72,0,0,1,21.2,417.4Zm1.44-6.1a14.65,14.65,0,0,0,7.89-2.16,15.19,15.19,0,0,0,5.47-6,19,19,0,0,0,2-8.78,18.73,18.73,0,0,0-2-8.74,15.53,15.53,0,0,0-5.47-6,14.42,14.42,0,0,0-7.89-2.2,14.35,14.35,0,0,0-7.93,2.2,15.59,15.59,0,0,0-5.43,6,18.61,18.61,0,0,0-2,8.74,19,19,0,0,0,2,8.69,15.05,15.05,0,0,0,5.43,6.06A14.53,14.53,0,0,0,22.64,411.3Z"/><path class="cls-1" d="M73.44,417.4a21,21,0,0,1-11.2-3,21.47,21.47,0,0,1-7.76-8.22,26.06,26.06,0,0,1,0-23.66,21.25,21.25,0,0,1,7.76-8.19,21.48,21.48,0,0,1,11.28-3,23.65,23.65,0,0,1,10.35,2.24,19,19,0,0,1,7.46,6.24l-3.73,4.58a18,18,0,0,0-3.86-3.74,19.11,19.11,0,0,0-4.83-2.5,15.83,15.83,0,0,0-5.13-.89,14.76,14.76,0,0,0-8.06,2.25,16.13,16.13,0,0,0-5.64,6.06A18,18,0,0,0,58,394.34a18.19,18.19,0,0,0,2.08,8.78,15.7,15.7,0,0,0,5.64,6.06,14.82,14.82,0,0,0,8,2.2,15.85,15.85,0,0,0,5-.8,18.38,18.38,0,0,0,4.67-2.33,19.71,19.71,0,0,0,4.07-3.82L91.16,409a20.41,20.41,0,0,1-7.72,6.11A23.19,23.19,0,0,1,73.44,417.4Z"/><path class="cls-1" d="M115,417.4a18.79,18.79,0,0,1-10.43-3,21.16,21.16,0,0,1-7.38-8.22,25.24,25.24,0,0,1-2.71-11.83,24.53,24.53,0,0,1,2.8-11.88,21.51,21.51,0,0,1,7.5-8.14,19.46,19.46,0,0,1,10.56-3,19.67,19.67,0,0,1,6.44,1,18.1,18.1,0,0,1,5.3,2.84,17.46,17.46,0,0,1,3.91,4.24,15.61,15.61,0,0,1,2.16,5.22l-1.87-.93.26-11.45h6.36v44.27h-6.45V405.7l1.7-1.1a13.65,13.65,0,0,1-2.29,4.88,19.07,19.07,0,0,1-4.11,4.11,19.94,19.94,0,0,1-5.43,2.8A19.6,19.6,0,0,1,115,417.4Zm1.44-6.1a14.65,14.65,0,0,0,7.89-2.16,15.12,15.12,0,0,0,5.47-6,18.86,18.86,0,0,0,2-8.78,18.61,18.61,0,0,0-2-8.74,15.46,15.46,0,0,0-5.47-6,15.32,15.32,0,0,0-15.82,0,15.59,15.59,0,0,0-5.43,6,18.73,18.73,0,0,0-2,8.74,19,19,0,0,0,2,8.69,15.05,15.05,0,0,0,5.43,6.06A14.56,14.56,0,0,0,116.43,411.3Z"/><path class="cls-1" d="M166.55,417.4a20.09,20.09,0,0,1-10.81-3,20.88,20.88,0,0,1-7.55-8.19,26.73,26.73,0,0,1,0-23.74,21.33,21.33,0,0,1,7.55-8.19,19.83,19.83,0,0,1,10.69-3,20.35,20.35,0,0,1,6.4,1,19.66,19.66,0,0,1,5.55,2.84,17.8,17.8,0,0,1,4.07,4.16,10.93,10.93,0,0,1,1.95,4.88l-1.95-.68V353.8h6.36v62.76h-6.27l-.17-11,1.61-.59a10.7,10.7,0,0,1-1.91,4.62,17.67,17.67,0,0,1-3.94,4,19,19,0,0,1-5.39,2.8A19.23,19.23,0,0,1,166.55,417.4Zm.93-5.85a14.42,14.42,0,0,0,7.89-2.2,15.31,15.31,0,0,0,5.47-6.11,19.28,19.28,0,0,0,2-8.9,19,19,0,0,0-2-8.86,15.65,15.65,0,0,0-5.47-6.11,15.17,15.17,0,0,0-15.9,0,15.79,15.79,0,0,0-5.43,6.11,19,19,0,0,0-2,8.86,19.45,19.45,0,0,0,1.95,8.82,15.31,15.31,0,0,0,5.43,6.15A14.54,14.54,0,0,0,167.48,411.55Z"/><path class="cls-1" d="M219,417.4a23.56,23.56,0,0,1-11.74-2.88,20.58,20.58,0,0,1-8-8.06,24,24,0,0,1-2.88-11.87,26.06,26.06,0,0,1,1.61-9.37,22.46,22.46,0,0,1,4.54-7.33,20.26,20.26,0,0,1,7-4.88,22.18,22.18,0,0,1,8.82-1.74,20.31,20.31,0,0,1,8.18,1.61,19.26,19.26,0,0,1,6.36,4.45,18.83,18.83,0,0,1,4,6.75,23.22,23.22,0,0,1,1.18,8.56l-.08,3H201.15l-.93-5.34h33l-1.53,1.44v-2a13.33,13.33,0,0,0-1.78-5.89,12.72,12.72,0,0,0-4.54-4.62,13.16,13.16,0,0,0-7-1.78,16.77,16.77,0,0,0-8.23,1.91,12.72,12.72,0,0,0-5.34,5.63,20.49,20.49,0,0,0-1.87,9.25,19.23,19.23,0,0,0,2,9.11,14.32,14.32,0,0,0,5.81,6,18.24,18.24,0,0,0,9.11,2.12,19.12,19.12,0,0,0,6.24-1.06,22.21,22.21,0,0,0,6.82-4.19l3.31,4.58a20.52,20.52,0,0,1-4.66,3.43,27.49,27.49,0,0,1-5.94,2.37A24.52,24.52,0,0,1,219,417.4Z"/><path class="cls-1" d="M245.42,416.56V372.29h6.36l.17,10.09-1.27.42a13.4,13.4,0,0,1,2.24-4.62,16.61,16.61,0,0,1,3.78-3.6,17.13,17.13,0,0,1,4.83-2.33,18.6,18.6,0,0,1,5.51-.81,16,16,0,0,1,6.24,1.15,10.58,10.58,0,0,1,4.66,3.9,20.73,20.73,0,0,1,2.93,7.25l-1.53-.77.59-1.44a13.77,13.77,0,0,1,2.51-3.77,20.51,20.51,0,0,1,3.81-3.27,18.18,18.18,0,0,1,4.75-2.24,17.66,17.66,0,0,1,5.3-.81,14.81,14.81,0,0,1,7.89,2,12.25,12.25,0,0,1,4.87,6.07,27.53,27.53,0,0,1,1.66,10.34v26.72h-6.53V390.18a20.06,20.06,0,0,0-1.1-7.21,8.57,8.57,0,0,0-3.27-4.19,9.81,9.81,0,0,0-5.47-1.4,14,14,0,0,0-5.3,1,12.22,12.22,0,0,0-4.15,2.72,12.94,12.94,0,0,0-2.72,3.94,11.6,11.6,0,0,0-1,4.75v26.8h-6.45V390.1a18.76,18.76,0,0,0-1.14-7,8.94,8.94,0,0,0-3.35-4.24,9.72,9.72,0,0,0-5.43-1.44,13.44,13.44,0,0,0-5.17,1,12.51,12.51,0,0,0-6.83,6.57,11.67,11.67,0,0,0-1,4.75v26.89Z"/><path class="cls-1" d="M325.9,362.71a4.89,4.89,0,0,1-3.61-1.23,4.53,4.53,0,0,1-1.23-3.35,4.59,4.59,0,0,1,1.28-3.4,4.82,4.82,0,0,1,3.56-1.27,4.92,4.92,0,0,1,3.56,1.23,4.56,4.56,0,0,1,1.27,3.44,4.45,4.45,0,0,1-1.27,3.3A4.82,4.82,0,0,1,325.9,362.71Zm-3.14,53.85V372.29h6.36v44.27Z"/><path class="cls-1" d="M358.63,417.4a18.81,18.81,0,0,1-10.43-3,21.16,21.16,0,0,1-7.38-8.22,25.24,25.24,0,0,1-2.71-11.83,24.53,24.53,0,0,1,2.8-11.88,21.51,21.51,0,0,1,7.5-8.14,19.46,19.46,0,0,1,10.56-3,19.73,19.73,0,0,1,6.45,1,18.36,18.36,0,0,1,5.3,2.84,17.62,17.62,0,0,1,3.9,4.24,15.61,15.61,0,0,1,2.16,5.22l-1.87-.93.26-11.45h6.36v44.27h-6.45V405.7l1.7-1.1a13.65,13.65,0,0,1-2.29,4.88,19.07,19.07,0,0,1-4.11,4.11,19.78,19.78,0,0,1-11.75,3.81Zm1.44-6.1a14.65,14.65,0,0,0,7.89-2.16,15.12,15.12,0,0,0,5.47-6,18.86,18.86,0,0,0,2-8.78,18.61,18.61,0,0,0-2-8.74,15.46,15.46,0,0,0-5.47-6,15.32,15.32,0,0,0-15.82,0,15.49,15.49,0,0,0-5.42,6,18.61,18.61,0,0,0-2,8.74,19,19,0,0,0,1.95,8.69,15.05,15.05,0,0,0,5.43,6.06A14.58,14.58,0,0,0,360.07,411.3Z"/><path class="cls-1" d="M0,472.14v-15H39.5v15Zm8.77,43.71V452.44a22.29,22.29,0,0,1,2.56-10.7,19.33,19.33,0,0,1,7.17-7.57,20.37,20.37,0,0,1,10.76-2.79,24.2,24.2,0,0,1,8,1.26,21.33,21.33,0,0,1,6.49,3.53l-5.23,13.31a19.07,19.07,0,0,0-2.85-1.25,8.08,8.08,0,0,0-2.5-.45,7.55,7.55,0,0,0-3.42.68,4.14,4.14,0,0,0-2,2.11,8.51,8.51,0,0,0-.63,3.47v61.81H8.77Z"/><path class="cls-1" d="M67.5,516.87a23.69,23.69,0,0,1-13.6-4,28.29,28.29,0,0,1-9.5-11.15,38.91,38.91,0,0,1,0-32.39,27.92,27.92,0,0,1,9.67-11.1,25,25,0,0,1,14-4A24,24,0,0,1,76,455.4a20.8,20.8,0,0,1,6.32,3.48A23,23,0,0,1,87,464a21.38,21.38,0,0,1,2.85,6.2l-3.76-.45V455.4h18.1v60.45H85.72V501.28l4.1-.11a19.67,19.67,0,0,1-3,6,22.46,22.46,0,0,1-5,5,24.87,24.87,0,0,1-6.6,3.41A23.54,23.54,0,0,1,67.5,516.87Zm5-15.36a13.4,13.4,0,0,0,7.29-1.94,12.88,12.88,0,0,0,4.78-5.52,21.88,21.88,0,0,0,0-17,13.29,13.29,0,0,0-4.78-5.58,13.09,13.09,0,0,0-7.29-2,12.58,12.58,0,0,0-7.11,2,13.47,13.47,0,0,0-4.73,5.58,22,22,0,0,0,0,17,13,13,0,0,0,4.73,5.52A12.88,12.88,0,0,0,72.51,501.51Z"/><path class="cls-1" d="M117.82,515.85V455.4h17.3l.57,10.93-2.39.12a19.89,19.89,0,0,1,8.25-9.05,23.78,23.78,0,0,1,5.58-2.34,22.13,22.13,0,0,1,5.86-.8,22.93,22.93,0,0,1,8.09,1.37,16.21,16.21,0,0,1,6.37,4.38,21.69,21.69,0,0,1,4.33,8.14l-2.85-.23.91-1.82a20.09,20.09,0,0,1,3.81-5,24.19,24.19,0,0,1,5.18-3.75,26.07,26.07,0,0,1,5.92-2.34,25.3,25.3,0,0,1,17.88,2,17.49,17.49,0,0,1,7.22,8.37A33.69,33.69,0,0,1,212.3,479v36.88H194v-35.4a15.5,15.5,0,0,0-1-6,7.45,7.45,0,0,0-3-3.58,9.45,9.45,0,0,0-5-1.2,11.73,11.73,0,0,0-4.38.8,10.5,10.5,0,0,0-3.42,2.16,9.85,9.85,0,0,0-2.22,3.19,10.13,10.13,0,0,0-.79,4.1v36H155.84V480.33a14.57,14.57,0,0,0-1-5.8,7.64,7.64,0,0,0-3.07-3.65,9,9,0,0,0-4.78-1.25,11.69,11.69,0,0,0-4.38.8,10.5,10.5,0,0,0-3.42,2.16,9.71,9.71,0,0,0-3,7.17v36.09Z"/><path class="cls-1" d="M224.48,448.8l-5.35-8.31,20.38-16.16,8.31,11.95Zm-.11,67.05V455.4h18.32v60.45Z"/><path class="cls-1" d="M255.9,515.85V431.61h18.21v84.24Z"/><path class="cls-1" d="M298.24,443.45c-3.41,0-6.09-.81-8-2.45a9.47,9.47,0,0,1,0-13.71,11.59,11.59,0,0,1,8-2.62c3.42,0,6.07.81,8,2.45a8.57,8.57,0,0,1,2.85,6.88,8.74,8.74,0,0,1-2.91,6.83A11.34,11.34,0,0,1,298.24,443.45Zm-9.1,72.4V455.4h18.21v60.45Z"/><path class="cls-1" d="M344.46,516.87a23.69,23.69,0,0,1-13.61-4,28.29,28.29,0,0,1-9.5-11.15,38.91,38.91,0,0,1,0-32.39,27.94,27.94,0,0,1,9.68-11.1,24.91,24.91,0,0,1,14-4,24,24,0,0,1,7.91,1.25,20.91,20.91,0,0,1,6.32,3.48,22.9,22.9,0,0,1,4.66,5.12,21.38,21.38,0,0,1,2.85,6.2l-3.76-.45V455.4h18.1v60.45H362.67V501.28l4.1-.11a19.45,19.45,0,0,1-3,6,22.46,22.46,0,0,1-5,5,24.56,24.56,0,0,1-6.6,3.41A23.52,23.52,0,0,1,344.46,516.87Zm5-15.36a13.39,13.39,0,0,0,7.28-1.94,12.88,12.88,0,0,0,4.78-5.52,21.88,21.88,0,0,0,0-17,13.29,13.29,0,0,0-4.78-5.58,13.08,13.08,0,0,0-7.28-2,12.59,12.59,0,0,0-7.12,2,13.45,13.45,0,0,0-4.72,5.58,21.88,21.88,0,0,0,0,17,13,13,0,0,0,4.72,5.52A12.89,12.89,0,0,0,349.47,501.51Z"/></g></g></svg>